<?xml version="1.0" standalone="no"?>
<!DOCTYPE svg PUBLIC "-//W3C//DTD SVG 20010904//EN"
 "http://www.w3.org/TR/2001/REC-SVG-20010904/DTD/svg10.dtd">
<svg version="1.0" xmlns="http://www.w3.org/2000/svg"
 width="1125.000000pt" height="1125.000000pt" viewBox="0 0 1125.000000 1125.000000"
 preserveAspectRatio="xMidYMid meet">
<metadata>
Created by potrace 1.11, written by Peter Selinger 2001-2013
</metadata>
<g transform="translate(0.000000,1125.000000) scale(0.100000,-0.100000)"
fill="#000000" stroke="none">
<path d="M5227 11235 c6 -18 -18 -20 -34 -4 -8 8 -13 7 -18 -2 -6 -8 -4 -10 5
-4 8 5 11 4 6 -3 -4 -7 -17 -8 -36 -2 -21 6 -30 5 -30 -3 0 -7 -4 -6 -10 3 -5
8 -10 11 -10 5 0 -5 -17 -10 -37 -9 -21 0 -41 -5 -45 -10 -5 -7 -8 -7 -8 2 0
10 -5 10 -20 2 -15 -8 -20 -8 -20 2 0 10 -2 10 -9 -1 -7 -10 -10 -11 -16 -1
-6 10 -11 9 -22 -5 -7 -11 -13 -13 -13 -6 0 8 -5 7 -16 -4 -12 -11 -20 -13
-27 -6 -14 14 -30 14 -22 1 3 -5 1 -10 -4 -10 -6 0 -11 4 -11 10 0 6 -9 6 -26
0 -33 -13 -37 -13 -28 3 6 9 5 9 -8 0 -8 -7 -18 -10 -21 -6 -4 3 -7 -2 -8 -13
0 -10 -3 -13 -6 -6 -2 6 -11 12 -19 12 -8 0 -14 -6 -14 -12 0 -9 -4 -8 -10 2
-9 13 -10 13 -10 0 0 -13 -2 -13 -9 -1 -8 12 -12 12 -24 2 -12 -9 -16 -9 -20
1 -4 10 -6 10 -6 1 -1 -7 -10 -13 -22 -13 -13 0 -18 -4 -13 -12 6 -10 4 -10
-8 0 -12 9 -18 10 -23 2 -5 -8 -11 -7 -22 2 -12 10 -17 9 -27 -3 -6 -9 -17
-14 -25 -11 -7 2 -17 -2 -22 -9 -7 -12 -9 -11 -9 1 0 13 -1 13 -10 0 -7 -11
-10 -11 -10 -2 0 7 -5 10 -10 7 -6 -4 -8 -10 -6 -14 3 -4 -17 -7 -44 -6 -38 1
-47 -1 -39 -11 8 -9 5 -11 -10 -7 -14 3 -21 1 -21 -8 0 -11 -2 -11 -9 0 -7 11
-13 12 -23 3 -8 -6 -34 -12 -60 -14 -27 -2 -44 -7 -41 -14 2 -7 -8 -9 -28 -6
-24 3 -30 1 -24 -8 7 -11 -1 -8 -41 14 -1 1 -11 -7 -23 -18 -11 -10 -27 -16
-36 -13 -8 4 -14 3 -14 -1 3 -19 -3 -22 -21 -12 -16 9 -18 8 -14 -5 5 -12 -1
-14 -25 -11 -17 2 -34 -1 -38 -7 -4 -6 -1 -7 8 -2 8 5 11 4 6 -1 -5 -5 -18 -9
-30 -9 -13 -1 -21 -6 -19 -15 3 -11 1 -11 -13 0 -15 12 -19 11 -36 -10 -16
-21 -18 -22 -13 -5 5 18 4 18 -8 4 -7 -9 -21 -15 -30 -13 -10 1 -18 -2 -18 -7
0 -4 -7 -6 -15 -3 -8 4 -15 1 -15 -6 0 -9 -4 -9 -17 1 -11 10 -14 10 -9 2 5
-9 0 -13 -18 -13 -14 0 -28 -5 -32 -11 -3 -6 -15 -8 -26 -6 -11 3 -17 3 -14 0
3 -3 -1 -12 -9 -19 -16 -17 -29 -19 -19 -3 3 6 -5 4 -18 -5 -14 -9 -28 -13
-32 -9 -4 4 -4 -1 0 -12 7 -18 6 -19 -11 -5 -11 9 -16 10 -11 3 4 -9 1 -14
-11 -15 -46 -3 -75 -17 -66 -32 4 -7 2 -7 -7 1 -16 14 -54 -2 -44 -18 4 -7 -1
-7 -15 0 -17 10 -20 9 -15 -4 5 -11 2 -13 -10 -9 -9 4 -16 1 -16 -6 0 -10 -3
-10 -15 0 -13 11 -14 10 -8 -6 6 -17 5 -18 -12 -4 -10 8 -16 10 -12 4 4 -7 -3
-14 -18 -18 -14 -4 -25 -11 -25 -16 0 -6 -6 -10 -14 -10 -8 0 -17 -6 -19 -12
-4 -10 -6 -10 -6 0 -1 6 -6 12 -12 12 -5 0 -8 -3 -6 -7 3 -5 -1 -14 -9 -21
-10 -9 -14 -10 -14 -1 0 7 -9 2 -19 -10 -14 -16 -21 -18 -24 -9 -4 11 -6 10
-6 0 -1 -7 -5 -10 -11 -7 -5 3 -10 1 -10 -5 0 -7 -6 -10 -13 -7 -7 2 -28 -8
-47 -24 -25 -21 -36 -25 -42 -16 -5 8 -8 6 -8 -7 0 -12 -5 -16 -16 -12 -8 3
-12 2 -9 -3 3 -5 -4 -12 -15 -16 -11 -4 -17 -11 -14 -17 4 -6 -3 -5 -16 2 -12
7 -20 8 -17 3 3 -4 -1 -13 -8 -20 -11 -10 -15 -10 -18 0 -3 7 -6 4 -6 -6 -1
-10 -5 -15 -11 -12 -5 3 -17 -3 -27 -14 -14 -16 -20 -18 -32 -8 -12 9 -13 9
-7 0 4 -8 2 -13 -4 -13 -6 0 -9 -4 -6 -9 3 -5 -5 -12 -19 -15 -14 -4 -25 -12
-25 -19 0 -8 -3 -8 -9 2 -7 11 -10 9 -16 -8 -3 -11 -11 -21 -16 -21 -6 0 -7 6
-3 13 4 6 -6 -3 -23 -20 -33 -35 -55 -45 -32 -15 13 15 12 16 -3 3 -10 -7 -18
-21 -18 -30 0 -13 -2 -13 -9 -2 -11 17 -25 -4 -15 -21 5 -9 2 -9 -9 1 -14 11
-17 11 -18 0 -1 -8 -1 -18 0 -22 1 -5 -3 -6 -8 -2 -10 6 -71 -21 -71 -31 0 -3
5 -2 12 2 7 4 8 3 4 -4 -4 -6 -14 -8 -23 -5 -12 5 -14 3 -8 -7 6 -10 4 -12 -8
-7 -15 6 -22 -3 -18 -25 0 -4 -6 -5 -13 -2 -19 7 -59 -33 -50 -49 4 -7 -3 -3
-16 8 -13 11 -20 14 -16 7 9 -15 -12 -45 -25 -36 -5 3 -9 0 -9 -6 0 -6 -4 -9
-8 -6 -5 3 -16 -6 -26 -20 -11 -13 -25 -24 -33 -24 -7 0 -18 -12 -23 -26 -6
-14 -15 -22 -20 -19 -6 4 -20 -5 -32 -20 -11 -15 -32 -31 -45 -36 -13 -5 -21
-13 -18 -19 3 -5 0 -7 -8 -4 -8 3 -17 -2 -21 -11 -3 -9 -10 -13 -16 -10 -5 3
-10 0 -10 -8 0 -7 -11 -19 -25 -25 -14 -6 -25 -18 -25 -26 0 -9 -6 -13 -14
-10 -16 6 -40 -29 -28 -41 4 -5 -1 -5 -10 -2 -10 4 -18 2 -18 -3 0 -5 -13 -17
-29 -26 -17 -10 -28 -21 -25 -26 3 -4 -2 -8 -10 -8 -8 0 -18 -5 -22 -12 -5 -7
-3 -8 6 -3 9 6 11 4 6 -4 -5 -7 -14 -10 -22 -7 -9 4 -14 -2 -14 -15 0 -15 -5
-19 -15 -15 -8 3 -15 2 -15 -3 0 -11 -37 -53 -43 -49 -3 2 -9 -1 -14 -6 -5 -5
-3 -6 5 -2 6 4 12 2 12 -3 0 -10 -14 -15 -32 -12 -5 0 -8 -6 -8 -15 0 -9 -5
-12 -12 -8 -7 5 -9 2 -5 -8 4 -11 -2 -18 -19 -22 -13 -4 -23 -12 -21 -19 1 -6
-4 -11 -10 -10 -12 3 -17 -9 -14 -29 0 -4 -7 -4 -17 -1 -15 6 -16 5 -2 -12 14
-17 13 -18 -3 -12 -14 5 -20 2 -24 -13 -3 -11 -9 -17 -14 -14 -5 3 -9 0 -9 -6
0 -6 -4 -8 -10 -5 -6 4 -7 -1 -3 -12 3 -10 3 -15 -1 -12 -8 8 -56 -37 -56 -51
0 -6 -5 -10 -11 -10 -5 0 -7 5 -3 12 4 7 3 8 -5 4 -9 -6 -9 -11 -1 -21 9 -11
6 -13 -12 -9 -13 2 -18 2 -11 -2 10 -4 10 -8 0 -19 -7 -7 -15 -11 -19 -8 -5 2
-8 0 -8 -6 0 -14 -48 -60 -55 -53 -3 4 -3 -1 1 -11 4 -12 1 -17 -10 -17 -10 0
-13 -5 -9 -17 4 -11 3 -14 -5 -9 -7 4 -12 1 -12 -8 0 -9 -5 -16 -11 -16 -5 0
-7 5 -3 12 4 6 3 8 -4 4 -6 -3 -9 -15 -7 -26 2 -11 -1 -19 -8 -17 -7 1 -11 -4
-10 -10 2 -7 -2 -13 -8 -13 -6 0 -17 -7 -25 -15 -12 -12 -12 -15 -2 -16 7 0 3
-4 -10 -10 -13 -5 -20 -13 -17 -19 3 -5 0 -10 -8 -10 -8 0 -20 -13 -27 -30 -7
-16 -16 -30 -21 -30 -5 0 -9 -6 -9 -13 0 -17 -46 -58 -55 -49 -3 4 -3 -1 0 -9
4 -10 -4 -29 -19 -46 -14 -17 -22 -33 -19 -37 4 -4 0 -4 -10 0 -12 4 -17 1
-17 -10 0 -9 -5 -16 -11 -16 -5 0 -7 -4 -4 -10 3 -5 -1 -10 -9 -10 -10 0 -16
-9 -16 -26 0 -14 -4 -23 -10 -19 -5 3 -10 1 -10 -5 0 -6 -5 -8 -12 -4 -9 5 -9
2 1 -9 12 -15 11 -17 -10 -17 -19 0 -21 -2 -9 -10 14 -9 7 -15 -14 -11 -5 1
-3 -6 5 -15 9 -12 9 -15 2 -10 -8 4 -13 2 -13 -4 0 -6 -5 -8 -12 -4 -8 5 -7 0
2 -11 8 -10 11 -16 5 -13 -5 3 -20 -5 -33 -18 -14 -15 -18 -24 -10 -24 10 0
10 -2 -1 -9 -8 -5 -10 -14 -5 -22 6 -12 5 -11 -9 0 -15 12 -17 12 -10 -4 5
-15 3 -17 -12 -12 -14 6 -16 5 -6 -7 9 -11 8 -15 -6 -20 -15 -6 -15 -8 -3 -16
13 -8 12 -10 -2 -10 -9 0 -20 -5 -24 -12 -5 -7 -3 -8 5 -3 10 6 11 3 2 -13 -6
-12 -17 -24 -24 -28 -7 -5 -6 0 3 12 14 18 14 18 -3 5 -13 -11 -15 -17 -6 -28
10 -11 8 -12 -7 -6 -17 6 -17 5 -5 -10 12 -15 12 -17 -4 -10 -15 5 -17 3 -12
-11 5 -11 3 -15 -5 -10 -8 5 -9 2 -5 -9 3 -10 2 -17 -4 -17 -6 0 -8 -4 -4 -9
3 -5 0 -13 -6 -17 -8 -4 -9 -3 -5 4 4 7 5 12 2 12 -3 0 -10 -10 -17 -21 -9
-17 -8 -20 2 -14 8 5 10 4 5 -3 -4 -7 -15 -12 -24 -13 -10 0 -12 -3 -5 -6 10
-3 9 -8 -2 -20 -8 -8 -12 -20 -8 -26 4 -7 0 -8 -11 -4 -10 4 -15 3 -11 -4 4
-5 1 -17 -7 -26 -9 -12 -9 -15 0 -9 7 4 12 2 12 -5 0 -6 -8 -9 -20 -6 -16 4
-18 2 -10 -13 13 -24 13 -40 0 -20 -8 13 -10 12 -10 -2 0 -10 -5 -18 -11 -18
-5 0 -8 -4 -5 -9 3 -5 -1 -11 -9 -15 -8 -3 -12 -12 -9 -21 3 -8 2 -15 -4 -15
-5 0 -9 -8 -8 -17 0 -10 -4 -17 -10 -16 -8 1 -10 -6 -6 -19 3 -14 1 -19 -6
-14 -6 3 -14 1 -18 -5 -4 -7 -3 -9 4 -5 6 3 13 2 17 -4 3 -5 -1 -10 -10 -10
-11 0 -15 -5 -11 -16 3 -8 2 -12 -4 -9 -6 3 -10 -1 -10 -10 0 -9 -4 -13 -10
-10 -6 4 -7 -1 -3 -11 5 -13 3 -15 -7 -9 -9 5 -11 4 -6 -4 4 -6 2 -19 -6 -28
-7 -9 -8 -14 -2 -10 6 3 11 0 11 -7 0 -8 -7 -12 -15 -8 -9 3 -13 1 -9 -5 4 -6
0 -14 -8 -17 -12 -4 -13 -10 -5 -25 13 -25 13 -41 0 -21 -8 13 -10 12 -10 -3
0 -10 -4 -15 -10 -12 -6 4 -6 -3 0 -21 10 -25 9 -26 -7 -13 -10 7 -15 9 -10 4
4 -4 0 -17 -10 -27 -9 -11 -11 -18 -5 -18 7 0 12 5 12 12 0 6 3 8 6 5 4 -4 2
-13 -4 -20 -7 -8 -8 -18 -4 -22 4 -5 1 -5 -6 -1 -7 4 -12 1 -12 -8 0 -9 -4
-16 -10 -16 -5 0 -10 -5 -10 -11 0 -5 4 -8 9 -5 5 4 7 -4 3 -16 -3 -12 -7 -17
-10 -10 -7 21 -20 13 -14 -10 4 -16 2 -19 -9 -13 -12 7 -12 6 -1 -7 10 -13 10
-17 -5 -22 -15 -6 -15 -8 -3 -16 11 -7 12 -10 2 -10 -7 0 -11 -4 -7 -9 3 -5
-2 -17 -11 -25 -8 -9 -11 -16 -6 -16 5 0 9 -7 9 -15 0 -10 -4 -12 -12 -5 -7 6
-10 -1 -10 -27 1 -20 -4 -37 -11 -40 -7 -2 -10 -12 -7 -20 4 -11 2 -14 -6 -9
-6 4 -11 4 -10 -1 4 -26 -2 -63 -11 -58 -6 3 -7 -1 -4 -9 3 -9 1 -16 -5 -16
-6 0 -11 -5 -11 -11 0 -5 6 -7 13 -4 6 4 3 -1 -7 -9 -15 -12 -16 -16 -5 -16 9
0 10 -3 3 -8 -6 -4 -10 -15 -9 -24 2 -11 -2 -15 -12 -11 -13 5 -13 2 -4 -14 8
-16 7 -24 -4 -33 -8 -7 -12 -17 -8 -24 11 -17 12 -37 2 -30 -5 3 -6 11 -3 17
4 7 3 8 -1 4 -14 -12 -15 -37 -2 -37 7 -1 1 -7 -12 -14 -14 -8 -19 -16 -13
-20 13 -8 12 -46 -1 -46 -5 0 -7 -11 -5 -25 3 -14 1 -28 -5 -32 -6 -4 -7 -1
-2 7 5 9 4 11 -4 6 -9 -6 -9 -11 0 -22 9 -11 9 -14 0 -14 -7 0 -9 -4 -6 -10 3
-5 1 -10 -6 -10 -8 0 -8 -4 1 -15 12 -14 7 -20 -15 -15 -5 1 -4 -4 2 -11 10
-10 9 -17 -4 -31 -16 -18 -16 -18 3 -12 18 7 18 6 3 -12 -9 -10 -14 -24 -12
-31 2 -6 -1 -14 -7 -18 -8 -5 -7 -11 2 -23 11 -13 11 -14 -1 -7 -11 6 -13 4
-8 -8 4 -10 0 -17 -11 -20 -15 -4 -15 -5 1 -6 17 -1 17 -2 2 -17 -13 -13 -13
-19 -3 -32 10 -12 10 -14 0 -8 -15 9 -17 -24 -2 -42 6 -6 7 -10 4 -8 -13 10
-32 -19 -22 -31 7 -9 7 -13 -2 -13 -10 0 -10 -3 -1 -14 9 -11 9 -16 0 -22 -8
-5 -9 -3 -4 6 6 9 4 11 -5 5 -10 -6 -10 -11 4 -20 14 -11 14 -14 2 -18 -8 -3
-13 -14 -11 -24 1 -10 -2 -24 -8 -31 -7 -8 -7 -16 -1 -20 10 -8 10 -29 -1 -55
-4 -9 -5 -26 -2 -37 3 -11 1 -20 -5 -20 -6 0 -8 -6 -5 -14 3 -7 0 -19 -6 -25
-8 -8 -8 -11 2 -11 10 0 9 -6 -4 -26 -9 -14 -14 -28 -11 -32 3 -3 6 0 6 6 0 7
5 12 10 12 7 0 7 -7 0 -21 -14 -24 -20 -110 -8 -103 4 3 8 1 8 -5 0 -5 -6 -12
-12 -14 -10 -4 -9 -8 2 -16 10 -7 11 -11 2 -11 -6 0 -11 -6 -10 -12 2 -7 -3
-12 -9 -10 -10 1 -13 -89 -13 -424 0 -395 1 -428 18 -440 15 -12 15 -15 2 -24
-9 -6 -10 -10 -3 -10 7 0 10 -12 8 -30 -2 -17 -1 -28 4 -26 4 3 8 -1 8 -9 0
-8 -3 -12 -6 -11 -3 2 -6 -6 -6 -19 0 -19 3 -21 14 -12 12 10 12 9 3 -10 -15
-27 -15 -36 -2 -28 6 3 7 -1 4 -9 -3 -9 -11 -13 -18 -10 -6 3 -3 -1 6 -9 13
-10 15 -16 6 -25 -8 -8 -9 -12 -1 -12 6 0 10 -16 9 -39 -1 -22 1 -38 6 -35 12
8 10 -10 -4 -24 -9 -9 -9 -15 1 -24 10 -11 11 -10 6 5 -4 9 -3 17 3 17 10 0 7
-44 -4 -61 -2 -4 0 -10 4 -13 5 -3 8 -19 7 -35 -1 -21 2 -28 9 -22 8 6 11 0
11 -20 1 -16 -4 -29 -10 -29 -5 0 -3 -5 5 -11 11 -8 12 -12 3 -16 -10 -3 -9
-8 2 -19 11 -12 12 -20 5 -34 -8 -15 -7 -18 3 -14 8 3 14 -2 14 -10 0 -8 -4
-13 -9 -10 -4 3 -8 0 -8 -5 0 -6 5 -11 11 -11 5 0 7 -5 4 -10 -4 -6 -1 -18 7
-27 9 -12 9 -15 1 -9 -9 5 -11 2 -7 -8 3 -9 10 -16 15 -16 5 0 9 -5 9 -11 0
-5 -4 -8 -9 -5 -11 7 -9 -13 2 -32 5 -7 13 -10 18 -6 6 3 5 -3 -2 -14 -10 -17
-10 -23 4 -37 22 -21 21 -26 0 -18 -16 6 -17 5 -3 -13 8 -10 20 -22 25 -26 6
-5 4 -8 -5 -8 -13 0 -13 -1 0 -10 13 -9 13 -10 0 -10 -13 -1 -12 -2 1 -10 10
-6 15 -18 12 -33 -3 -14 2 -31 12 -40 15 -16 15 -17 -2 -18 -10 0 -13 -3 -5
-6 6 -2 10 -9 6 -14 -3 -5 -1 -9 5 -9 5 0 8 -8 7 -17 -2 -10 3 -23 10 -31 7
-7 11 -19 8 -27 -4 -8 -1 -15 4 -15 6 0 9 -9 7 -20 -2 -11 2 -20 8 -21 7 0 4
-4 -6 -8 -18 -7 -18 -8 -1 -21 15 -12 16 -12 9 -1 -5 10 -4 12 4 7 9 -6 9 -11
-1 -24 -11 -13 -11 -14 1 -7 11 6 13 3 9 -13 -5 -16 -2 -22 10 -22 12 0 13 -3
5 -11 -12 -12 0 -45 22 -61 6 -5 4 -8 -5 -8 -13 0 -13 -1 0 -10 8 -5 11 -10 6
-10 -5 0 -3 -7 4 -15 6 -8 9 -19 5 -25 -3 -5 -1 -10 5 -10 7 0 10 -7 6 -15 -3
-10 1 -15 12 -15 15 0 15 -2 2 -10 -11 -7 -11 -10 -2 -10 7 0 11 -3 9 -8 -3
-4 3 -24 13 -45 11 -23 14 -37 7 -37 -6 0 -2 -7 9 -15 14 -11 15 -14 4 -15
-13 0 -13 -1 0 -10 8 -5 15 -13 15 -17 2 -23 18 -53 28 -53 7 0 6 -4 -3 -10
-9 -6 -10 -10 -3 -10 6 0 13 -10 15 -23 2 -12 9 -21 16 -19 10 2 10 -2 1 -19
-6 -12 -7 -19 -1 -15 5 3 13 -1 16 -10 4 -10 2 -13 -7 -8 -6 4 -3 -2 7 -14 11
-12 15 -22 11 -22 -5 0 0 -7 11 -16 10 -8 14 -13 7 -10 -6 4 -15 2 -18 -4 -4
-6 -3 -10 2 -9 4 1 15 1 23 0 13 -1 13 -2 0 -11 -10 -6 -11 -10 -2 -10 6 0 12
-7 12 -15 0 -8 5 -15 11 -15 8 0 7 -5 -1 -16 -11 -13 -10 -16 8 -21 12 -3 19
-9 16 -14 -3 -5 1 -9 8 -9 9 0 9 -3 -2 -10 -12 -8 -12 -10 5 -10 17 0 17 -2 5
-10 -13 -8 -13 -10 2 -10 9 0 20 -5 24 -12 4 -7 3 -8 -4 -4 -7 4 -12 1 -12 -9
0 -9 4 -13 10 -10 5 3 11 1 11 -4 1 -6 2 -16 3 -22 0 -7 10 -15 21 -20 11 -4
14 -8 8 -8 -7 -1 -13 -6 -13 -12 0 -16 26 -39 36 -31 5 4 2 -2 -6 -12 -10 -13
-10 -17 -3 -12 12 6 18 -11 14 -36 0 -5 4 -8 10 -8 5 0 8 -4 4 -9 -3 -6 3 -8
15 -6 11 2 22 -1 26 -6 3 -5 2 -8 -3 -7 -8 3 -13 -5 -13 -23 0 -5 4 -8 9 -5 5
3 12 -1 15 -10 3 -8 2 -12 -4 -9 -6 3 -7 -1 -4 -9 3 -9 10 -13 16 -10 5 3 8
-1 6 -9 -2 -9 6 -23 17 -32 11 -9 15 -14 9 -11 -6 3 -11 -1 -11 -8 0 -8 6 -12
14 -9 9 4 13 -3 13 -22 0 -20 4 -26 15 -21 10 4 15 1 13 -9 -2 -7 6 -21 17
-30 11 -9 14 -14 8 -10 -7 3 -13 2 -13 -3 0 -6 7 -13 16 -16 9 -4 14 -13 10
-22 -3 -8 -2 -13 2 -11 4 3 12 -1 19 -8 10 -11 10 -15 0 -18 -7 -3 -2 -6 10
-6 16 -1 21 -6 17 -16 -7 -17 40 -78 51 -67 4 4 2 -4 -5 -18 -12 -22 -12 -24
2 -12 13 10 17 10 22 -3 4 -11 2 -14 -7 -10 -6 4 -4 0 6 -8 9 -8 17 -19 17
-26 0 -6 5 -11 10 -11 6 0 10 -7 10 -16 0 -9 5 -12 12 -8 8 5 9 2 5 -9 -4 -11
-1 -17 8 -17 7 0 15 -10 17 -22 2 -13 9 -22 16 -21 6 2 14 -8 18 -22 3 -14 10
-22 15 -19 8 5 14 -18 10 -39 -1 -5 3 -6 9 -2 9 6 14 -7 11 -28 0 -4 2 -6 6
-6 5 1 15 1 23 0 13 -1 13 -2 0 -11 -12 -8 -10 -10 9 -10 21 0 22 -2 10 -16
-12 -15 -11 -16 8 -10 18 6 21 4 18 -13 -2 -13 1 -21 9 -21 13 0 30 -35 27
-54 -1 -5 5 -4 13 4 13 10 16 10 16 -4 0 -21 25 -48 34 -38 4 3 4 -1 0 -11 -3
-10 -1 -17 6 -17 6 0 9 -4 5 -9 -3 -6 4 -8 16 -6 16 3 18 1 10 -9 -9 -10 -7
-17 6 -27 16 -12 17 -12 8 1 -6 10 -4 9 6 -2 9 -9 20 -14 25 -10 5 4 2 -2 -6
-12 -8 -11 -10 -17 -5 -14 10 5 47 -27 55 -47 6 -17 27 -34 34 -28 3 4 6 -3 6
-15 0 -12 8 -23 19 -27 12 -4 18 -12 14 -21 -4 -10 0 -12 11 -8 11 4 16 1 16
-10 0 -9 4 -16 8 -16 4 0 16 -13 25 -30 10 -16 27 -30 37 -30 10 0 22 -5 26
-12 5 -7 3 -8 -6 -3 -9 5 -11 4 -6 -3 4 -7 14 -12 22 -12 8 0 14 -7 14 -16 0
-8 4 -12 10 -9 5 3 10 -3 10 -14 0 -15 5 -19 22 -16 16 4 19 2 10 -7 -19 -19
-14 -30 8 -18 12 6 20 7 20 1 0 -5 -6 -12 -12 -14 -8 -3 -5 -6 6 -6 12 -1 16
-6 12 -17 -3 -8 -2 -13 3 -10 12 8 52 -29 43 -40 -4 -4 2 -2 12 6 14 10 17 11
12 2 -5 -8 4 -24 25 -45 18 -18 27 -23 19 -12 -14 18 -14 19 2 6 10 -7 18 -19
18 -26 0 -14 27 -28 39 -20 5 2 7 -7 5 -20 -1 -14 2 -23 7 -19 5 3 31 -17 59
-44 30 -30 53 -45 59 -39 5 5 12 4 16 -4 6 -8 4 -10 -6 -4 -8 5 -3 -3 11 -18
14 -15 31 -27 38 -27 7 0 11 -4 8 -9 -3 -5 9 -16 27 -25 41 -20 77 -51 77 -66
0 -6 4 -8 10 -5 5 3 10 1 10 -4 0 -6 10 -11 21 -11 19 0 20 -2 8 -17 -7 -10
-10 -15 -5 -11 13 11 48 -11 39 -25 -4 -7 2 -5 13 3 10 8 16 11 12 6 -8 -10
15 -36 31 -36 6 0 11 -4 11 -10 0 -5 7 -10 15 -10 8 0 15 -5 15 -11 0 -5 4 -7
10 -4 6 3 10 -1 10 -10 0 -9 5 -13 10 -10 6 3 10 -2 10 -12 0 -14 2 -15 9 -4
7 11 10 9 15 -7 4 -11 14 -23 23 -26 14 -6 14 -4 2 11 -13 17 -13 17 6 3 44
-31 64 -53 58 -63 -3 -6 -1 -7 5 -4 14 9 43 -3 36 -14 -3 -5 4 -9 15 -9 11 0
22 -8 25 -17 3 -10 18 -23 32 -30 23 -11 24 -10 12 5 -9 12 -6 11 14 -3 15
-11 28 -27 28 -35 1 -10 4 -9 9 4 7 19 8 19 13 -2 4 -12 13 -22 22 -22 9 0 16
-6 16 -12 0 -9 4 -8 10 2 8 13 10 12 10 -3 0 -10 4 -15 10 -12 5 3 10 1 10 -4
0 -6 9 -11 21 -11 11 0 17 -4 14 -10 -3 -5 -1 -10 5 -10 6 0 8 -5 4 -12 -6
-10 -5 -10 7 -1 12 10 17 8 27 -7 7 -11 18 -17 27 -14 10 4 15 0 15 -10 0 -9
5 -16 11 -16 5 0 7 5 4 11 -4 6 2 5 13 -2 12 -7 18 -18 14 -24 -3 -5 3 -3 13
5 10 8 16 10 12 3 -4 -7 1 -14 13 -18 11 -3 26 -12 33 -18 7 -7 23 -18 36 -25
19 -11 22 -11 16 0 -5 7 2 3 14 -9 24 -25 39 -31 25 -10 -5 7 -2 6 6 -3 9 -9
22 -14 29 -12 10 3 12 0 8 -12 -4 -10 -3 -15 3 -11 6 3 10 1 10 -5 0 -8 6 -7
21 1 15 8 19 8 15 0 -4 -6 0 -11 8 -11 9 0 16 -5 16 -11 0 -8 5 -7 15 1 9 7
18 10 22 6 3 -3 1 -6 -7 -6 -10 0 -10 -3 0 -15 7 -8 21 -15 32 -15 11 0 16 -4
12 -11 -4 -7 1 -7 16 1 12 7 20 8 16 2 -8 -13 13 -28 42 -30 13 0 31 -9 40
-19 9 -11 13 -13 8 -6 -7 10 -4 12 10 6 10 -3 22 -11 26 -17 4 -6 17 -11 30
-11 13 0 22 -5 21 -11 -1 -7 8 -9 24 -6 21 4 25 2 20 -12 -4 -9 -2 -16 2 -16
5 0 12 7 15 16 6 17 26 10 26 -9 0 -7 -4 -6 -11 3 -9 13 -10 13 -6 0 2 -8 12
-14 21 -12 9 2 33 -7 54 -20 38 -23 66 -32 57 -18 -3 4 4 6 16 3 16 -4 17 -8
7 -14 -10 -7 -9 -9 5 -9 9 0 17 6 18 13 0 6 4 3 9 -9 6 -16 15 -20 39 -16 20
3 31 0 31 -8 0 -7 7 -10 15 -6 10 3 15 -1 15 -12 0 -15 2 -15 11 -2 8 11 12
12 16 3 7 -20 26 -15 18 4 -5 15 -3 14 13 -2 13 -14 16 -22 8 -28 -6 -4 -3 -6
9 -5 38 3 66 -2 61 -10 -8 -13 28 -11 36 2 5 8 8 7 8 -1 0 -7 9 -13 20 -13 11
0 20 -5 20 -11 0 -6 9 -9 20 -6 11 3 20 1 20 -3 0 -4 10 -6 22 -2 14 3 19 2
14 -6 -10 -16 7 -15 23 1 8 6 11 7 8 2 -3 -6 6 -15 19 -22 13 -6 22 -7 18 -2
-3 5 0 9 5 9 6 0 11 -5 11 -11 0 -8 6 -7 17 2 11 10 14 10 9 2 -7 -13 5 -16
57 -16 9 0 17 -6 17 -13 0 -17 12 -18 28 -2 9 9 12 9 12 -3 0 -12 2 -12 10 1
7 11 10 12 10 2 0 -9 7 -11 21 -7 16 5 19 4 14 -6 -6 -9 -3 -11 8 -6 10 3 17
2 17 -3 0 -6 5 -10 11 -10 5 0 8 4 5 9 -10 15 22 6 42 -12 14 -13 21 -14 30
-5 9 9 12 9 12 0 0 -7 5 -12 11 -12 5 0 7 6 3 13 -5 9 -4 9 6 0 7 -6 19 -9 26
-6 8 3 14 -1 14 -8 0 -10 3 -10 12 -1 9 9 16 8 30 -5 17 -15 18 -15 18 3 0 15
2 16 9 4 6 -8 7 -18 4 -24 -3 -5 -1 -6 6 -2 6 4 8 13 4 19 -5 9 -3 9 8 1 24
-18 51 -26 43 -11 -5 8 -2 7 9 -2 9 -7 17 -10 17 -5 0 4 5 3 12 -4 7 -7 17
-12 23 -12 5 0 3 5 -5 11 -12 8 -10 9 7 4 13 -3 36 -7 53 -7 18 -1 27 -5 23
-12 -4 -6 0 -5 9 1 8 7 18 10 22 5 4 -4 39 -8 77 -8 41 -1 76 -7 86 -15 12
-10 15 -10 9 -1 -8 13 6 17 18 5 4 -5 36 -8 70 -9 34 0 67 -4 74 -8 7 -4 12
-2 12 6 0 9 3 9 10 -2 8 -12 10 -12 10 -1 0 11 5 10 24 -3 23 -14 26 -14 40 0
15 14 20 11 17 -8 0 -4 6 -5 14 -2 8 4 13 10 10 14 -3 5 4 6 15 3 11 -3 17 -9
14 -14 -3 -5 2 -6 10 -3 9 3 14 9 12 13 -3 4 4 7 14 7 13 0 16 -4 10 -11 -7
-8 -5 -12 5 -12 8 0 15 4 15 8 0 4 7 10 16 13 14 5 15 4 5 -8 -10 -12 -9 -15
8 -13 11 0 17 5 15 9 -8 13 11 9 25 -4 12 -11 13 -9 7 7 -6 19 -5 19 8 3 15
-20 31 -25 20 -6 -4 7 -3 8 5 4 6 -4 19 -2 28 6 10 8 14 8 10 1 -4 -6 -3 -14
3 -18 5 -3 10 0 10 7 0 8 3 9 8 3 8 -12 96 -11 125 0 10 4 17 3 17 -4 0 -6 5
-11 11 -11 5 0 7 5 4 10 -4 6 6 10 22 10 23 0 25 -2 13 -11 -12 -9 -12 -10 3
-5 10 3 21 6 23 6 3 0 2 6 -2 13 -5 8 -2 8 9 -2 14 -11 17 -11 17 0 0 8 6 5
15 -7 12 -15 14 -15 9 -2 -5 15 -2 16 25 8 17 -5 31 -5 31 -1 0 8 47 7 56 -2
4 -3 19 0 35 8 34 18 42 19 33 3 -5 -9 -2 -9 9 1 12 9 17 10 17 2 0 -7 5 -9
10 -6 6 4 8 11 5 16 -3 5 1 6 9 3 9 -3 13 -11 10 -18 -3 -6 1 -3 9 7 15 18 16
18 26 0 10 -17 10 -17 11 2 0 15 2 17 9 6 6 -9 11 -10 15 -2 11 18 26 13 20
-6 -5 -15 -4 -16 5 -3 6 8 18 15 28 15 10 1 29 6 43 13 23 12 24 12 6 -2 -21
-17 -11 -22 14 -6 9 5 19 5 27 -2 10 -8 12 -7 8 3 -4 12 4 14 37 13 31 -1 45
3 50 15 6 14 7 13 7 -2 1 -11 6 -17 14 -14 6 2 11 11 9 18 -3 11 -1 12 9 2 15
-15 33 -18 25 -4 -3 4 6 6 21 3 20 -4 24 -2 18 9 -7 12 -6 12 7 1 12 -10 18
-10 23 -1 6 8 10 7 16 -2 7 -11 9 -11 9 -1 0 7 4 11 9 7 5 -3 13 -1 16 5 5 8
11 7 21 -1 11 -9 14 -8 15 7 0 12 3 14 6 6 4 -10 8 -10 21 0 13 11 14 11 7 -2
-8 -13 -6 -13 8 -2 9 8 21 11 27 7 5 -3 10 -2 10 2 0 5 12 8 28 8 31 -1 55 13
46 27 -4 6 5 2 20 -7 15 -10 29 -15 33 -11 3 3 1 6 -6 6 -7 0 -9 5 -6 10 4 7
12 7 25 0 13 -7 21 -7 25 0 4 6 16 8 28 5 15 -4 18 -3 9 3 -11 7 -9 10 7 15
13 3 19 1 14 -5 -4 -7 -1 -8 8 -2 16 10 20 11 55 13 17 1 23 5 18 14 -5 7 0 6
11 -3 17 -13 18 -13 13 1 -5 12 -1 15 18 11 16 -3 24 0 24 9 0 12 2 12 9 1 7
-11 11 -11 23 2 11 11 18 12 27 3 8 -8 11 -8 11 2 0 7 5 9 10 6 6 -3 10 -2 10
4 0 6 7 7 17 4 11 -4 14 -3 9 5 -4 7 -1 12 9 12 9 0 13 -5 9 -11 -4 -7 3 -6
17 2 13 7 27 12 32 11 4 -1 7 3 7 10 0 6 3 8 7 5 3 -4 12 1 19 11 10 13 15 14
25 5 14 -14 42 -5 32 11 -4 6 2 4 12 -4 10 -8 16 -10 13 -5 -4 6 5 15 18 22
13 6 22 7 19 3 -3 -5 -1 -12 5 -15 6 -4 9 -1 8 7 -2 8 6 13 20 12 16 -1 20 2
13 10 -7 8 -4 12 9 12 10 0 16 -5 14 -11 -3 -5 3 -1 13 10 10 11 31 20 48 21
24 0 29 4 27 20 -2 11 1 15 5 9 4 -5 20 -10 34 -11 20 0 25 4 21 15 -3 9 -1
12 6 7 7 -4 12 -3 12 2 0 5 12 8 26 6 20 -2 24 1 19 14 -3 9 -3 13 1 9 4 -4
14 -1 22 6 13 10 15 9 9 -8 -6 -18 -6 -19 6 -3 11 14 16 15 27 5 10 -9 11 -9
6 1 -12 20 4 35 22 20 12 -10 14 -10 8 0 -4 7 -1 12 9 12 9 0 14 4 11 9 -4 5
2 7 13 4 11 -3 21 2 24 11 4 9 12 16 19 16 9 0 8 -3 -2 -10 -8 -5 -10 -10 -4
-10 16 0 45 35 37 45 -5 4 -2 5 5 1 7 -4 9 -12 6 -18 -4 -5 5 -2 20 7 14 10
23 22 19 29 -4 6 1 5 10 -3 9 -7 17 -9 17 -3 0 5 7 12 14 15 11 4 14 1 10 -11
-2 -9 1 -7 8 6 8 17 18 22 34 19 17 -3 21 0 16 11 -3 10 -1 13 6 8 7 -4 12 -2
12 4 0 6 5 8 10 5 6 -3 10 -2 10 4 0 5 14 12 30 16 17 4 28 11 24 16 -5 8 26
14 50 10 5 -1 3 5 -4 14 -11 13 -10 15 3 10 8 -4 18 -2 22 4 3 6 18 11 32 11
22 0 24 2 12 16 -12 15 -11 16 9 10 15 -5 22 -3 22 6 0 10 3 9 10 -2 8 -13 10
-12 10 4 0 11 3 16 7 13 3 -4 12 2 20 12 8 12 22 18 33 16 11 -2 18 0 15 5 -3
5 -1 11 5 15 6 4 7 11 4 17 -4 7 -2 8 5 4 6 -4 9 -12 6 -17 -4 -5 -1 -9 4 -9
6 0 11 8 11 18 0 14 2 15 10 2 8 -13 10 -13 10 2 0 12 5 15 17 11 11 -4 14 -3
9 5 -4 7 -1 12 7 12 8 0 19 10 26 23 6 12 9 14 7 5 -7 -22 10 -24 18 -2 3 8
10 13 15 10 5 -4 11 -1 13 4 2 6 13 12 25 13 17 1 19 4 11 14 -6 7 -8 14 -4
14 10 2 25 6 34 9 4 1 10 2 14 1 4 0 5 6 2 14 -4 10 0 13 15 10 12 -2 21 0 21
6 0 5 7 9 15 9 8 0 15 5 15 11 0 5 6 7 13 3 8 -5 7 -2 -2 9 -12 15 -12 17 4
11 12 -5 16 -4 11 4 -4 7 1 10 14 7 18 -3 25 5 21 28 -1 4 7 3 18 -2 17 -9 19
-8 16 14 -2 20 0 23 11 14 8 -6 14 -7 14 -2 0 5 12 14 28 21 25 10 25 11 2 6
-19 -4 -21 -3 -10 5 9 5 22 11 30 13 8 2 23 12 33 22 9 10 17 16 17 11 0 -4 7
-2 15 5 9 7 13 20 10 28 -5 13 -3 13 12 1 11 -9 14 -10 9 -2 -4 8 -1 13 8 13
9 0 16 5 16 11 0 5 -5 7 -12 3 -7 -4 -8 -3 -4 4 4 6 14 8 23 5 10 -4 14 -2 9
5 -4 7 3 9 21 6 21 -3 24 -2 13 6 -13 9 -7 14 13 11 4 0 6 4 5 11 -2 7 2 12 9
13 6 0 22 13 36 29 14 16 30 25 36 22 7 -5 8 -1 4 10 -5 14 -3 16 11 11 10 -4
15 -3 11 3 -6 9 8 14 28 11 4 -1 3 8 -3 20 -11 19 -10 20 10 9 16 -8 20 -9 16
-1 -4 6 0 14 8 17 9 3 16 12 16 20 0 8 7 14 15 14 9 0 18 7 21 15 4 8 10 12
15 9 5 -3 9 0 9 6 0 6 5 8 13 4 7 -5 6 0 -3 11 -10 12 -10 16 -2 11 16 -10 44
12 35 28 -4 6 1 5 10 -2 14 -12 16 -11 12 7 -2 12 1 20 8 18 6 -1 12 4 13 11
1 6 2 15 3 18 0 4 8 1 16 -6 12 -10 14 -8 10 8 -3 16 1 20 15 17 14 -3 17 1
13 12 -5 12 -3 14 7 8 10 -6 12 -4 7 9 -5 14 -3 17 8 12 8 -3 15 -1 15 5 0 6
4 7 10 4 5 -3 7 0 4 8 -3 9 3 17 17 20 14 4 20 11 16 21 -4 11 -1 13 10 9 11
-4 14 -2 9 5 -7 11 6 17 28 13 5 -1 3 6 -5 15 -8 10 -9 15 -3 11 7 -4 23 2 35
14 13 11 17 18 9 14 -9 -4 -7 0 4 9 10 8 15 20 11 26 -6 9 -2 9 13 1 18 -10
20 -8 18 13 -2 17 1 23 10 19 8 -3 14 0 14 7 0 6 5 8 10 5 6 -4 9 -1 8 7 -2 7
4 12 12 10 8 -2 12 0 8 3 -4 4 2 15 13 24 11 9 21 26 22 38 1 18 4 20 16 10
12 -10 14 -9 8 6 -4 11 -2 17 8 17 9 0 15 9 15 23 0 18 2 19 10 7 8 -13 10
-13 10 2 0 12 5 15 18 11 14 -6 15 -4 4 9 -14 17 0 34 18 23 6 -3 7 1 4 9 -4
10 -1 16 9 16 10 0 14 7 10 23 -3 16 -2 18 5 8 11 -15 27 2 17 18 -3 6 3 8 14
6 13 -2 18 1 15 10 -3 7 0 16 5 20 6 3 9 11 6 16 -4 5 2 6 11 2 14 -5 16 -3
11 11 -5 11 -3 15 5 10 7 -5 9 -2 5 9 -8 22 16 40 33 24 10 -9 11 -9 6 0 -4 8
-2 13 6 13 9 0 9 3 -2 10 -13 9 -7 14 13 11 6 -1 11 14 8 31 0 4 6 5 14 2 14
-6 20 11 16 39 0 4 5 6 11 5 7 -2 12 3 10 11 -2 9 3 11 13 7 9 -3 13 -2 10 4
-9 14 4 51 16 45 5 -4 9 -1 9 5 0 6 5 8 11 4 8 -4 9 1 4 16 -5 15 -4 20 4 16
6 -4 11 -1 11 7 0 8 7 18 16 21 8 3 13 10 9 15 -3 6 4 15 15 21 11 6 18 15 15
21 -4 5 2 9 12 10 10 0 13 3 6 6 -20 7 -15 23 5 16 15 -6 15 -5 3 11 -12 15
-12 17 0 14 10 -2 13 5 11 22 -2 23 -2 23 11 6 12 -16 14 -17 15 -2 5 46 5 46
19 34 11 -8 12 -7 7 6 -3 9 -1 16 6 16 6 0 8 5 4 12 -5 8 -2 9 11 4 15 -5 16
-4 5 9 -7 8 -8 15 -3 15 5 0 16 12 24 28 8 15 21 33 29 40 8 8 10 11 5 8 -6
-2 -11 4 -11 14 0 14 3 16 13 8 13 -10 17 0 16 39 0 6 5 9 12 7 7 -3 15 2 19
11 4 10 2 14 -6 9 -7 -4 -8 -3 -4 4 4 7 14 12 23 12 13 0 14 2 2 17 -12 15
-12 16 5 10 16 -6 17 -5 6 8 -11 13 -11 16 1 13 9 -2 13 4 11 16 -2 11 1 15 7
11 6 -3 11 -1 11 5 0 6 5 8 13 4 8 -5 8 -3 -2 9 -11 14 -11 18 3 23 13 5 14 9
5 20 -10 12 -9 13 4 8 12 -4 15 -1 12 15 -2 14 1 18 10 15 10 -4 13 0 10 16
-3 16 0 20 11 16 9 -4 12 -2 8 5 -4 6 0 15 7 20 11 7 11 9 1 9 -10 0 -10 3 0
14 7 8 16 12 21 9 4 -2 7 1 7 6 0 6 -4 11 -10 11 -5 0 -7 7 -4 15 4 8 14 15
23 15 14 0 14 2 1 10 -12 7 -12 10 -1 10 8 0 11 6 7 16 -5 13 -4 14 7 5 12 -9
13 -6 9 15 -3 17 -1 25 6 21 15 -10 22 18 9 33 -9 10 -9 11 2 5 11 -6 13 -4 8
8 -4 10 -2 16 6 14 7 -1 11 6 11 15 -1 11 5 18 15 18 14 0 14 2 1 10 -12 7
-12 10 -1 10 8 0 11 6 7 16 -4 10 -2 13 6 8 8 -5 9 -2 4 11 -5 14 -3 15 6 7
10 -8 13 -4 15 15 1 19 -1 22 -8 12 -6 -10 -9 -11 -9 -1 0 7 6 15 14 18 16 6
28 36 30 78 1 16 10 34 19 41 9 6 14 15 10 18 -3 4 0 7 8 7 11 0 11 2 -1 10
-13 8 -12 10 3 10 11 0 15 5 11 11 -3 6 -1 15 7 19 10 7 10 11 -1 24 -11 14
-10 16 6 9 17 -6 18 -5 5 11 -11 13 -11 16 -1 14 7 -2 15 3 18 11 3 9 0 11 -9
6 -8 -4 -3 2 9 15 19 18 21 24 10 31 -11 7 -11 9 1 9 7 0 11 6 7 15 -3 10 1
15 12 16 10 0 12 3 5 6 -10 3 -10 10 -2 25 6 11 8 26 5 34 -3 7 -2 13 2 13 19
-3 23 2 13 15 -9 11 -9 16 0 22 8 5 9 3 4 -6 -5 -9 -4 -11 3 -6 9 5 9 13 0 29
-10 20 -10 21 5 9 14 -12 15 -10 11 13 -3 19 -1 24 7 19 8 -5 9 -3 4 6 -4 7
-2 16 6 21 12 8 12 11 -1 19 -11 7 -11 10 -2 10 7 0 10 5 7 10 -3 6 1 13 11
17 15 6 15 7 -2 21 -18 14 -18 14 0 8 16 -5 18 -2 14 28 -2 22 0 32 7 29 7 -2
12 3 12 11 0 8 -3 13 -7 11 -4 -2 -7 2 -7 10 0 8 4 12 9 9 4 -3 8 5 8 17 0 12
8 31 17 41 16 18 16 19 -3 13 -18 -6 -18 -6 -1 8 18 15 18 15 0 20 -16 4 -16
5 -1 6 11 1 15 6 12 16 -4 8 -1 15 6 15 9 0 9 4 -1 17 -12 14 -12 16 0 8 11
-6 13 -3 9 13 -4 12 -2 22 3 22 5 0 9 4 9 10 0 5 -8 6 -17 3 -15 -6 -16 -5 -3
9 8 9 20 13 25 10 6 -3 3 3 -5 13 -8 10 -10 16 -4 12 7 -4 14 2 17 13 3 11 1
18 -4 14 -5 -3 -9 0 -9 5 0 6 4 11 9 11 5 0 8 14 7 31 -1 17 3 37 10 44 10 9
10 15 1 25 -8 9 -8 11 -1 7 15 -9 25 16 14 33 -9 15 -2 42 9 35 10 -5 8 36 -2
51 -3 6 -3 14 0 18 9 9 14 33 16 79 1 24 6 37 15 37 7 0 10 5 7 10 -4 6 -12 7
-18 3 -8 -4 -7 -1 1 9 8 10 9 18 3 22 -6 4 -8 13 -5 21 4 8 9 13 13 11 4 -3 7
17 7 45 -1 37 2 49 14 50 13 0 13 1 0 7 -8 4 -16 13 -18 20 -1 8 2 11 7 8 5
-4 12 -2 16 4 3 5 -2 10 -12 11 -10 0 -13 3 -6 6 10 3 10 10 1 26 -10 19 -9
20 4 10 12 -10 15 -10 15 2 0 8 -5 15 -10 15 -5 0 -3 8 4 17 8 10 9 14 2 10
-6 -4 -15 -3 -18 3 -4 6 -1 9 6 8 8 -2 14 7 15 20 1 12 4 25 7 29 4 3 2 14 -4
24 -7 14 -6 19 3 19 9 0 9 3 -2 10 -8 5 -10 10 -4 10 8 0 9 11 4 36 -7 30 -6
35 8 29 12 -5 12 -1 -4 16 -10 12 -14 19 -8 16 20 -12 25 25 7 46 -11 12 -12
17 -4 12 11 -6 13 -4 8 7 -3 9 0 21 6 28 9 9 9 11 1 7 -7 -4 -15 0 -18 9 -3 8
-2 12 3 9 5 -3 12 -1 16 5 3 5 0 10 -7 10 -9 0 -9 3 2 10 10 6 11 10 3 10 -7
0 -13 7 -13 16 0 8 5 12 10 9 17 -10 11 7 -7 22 -10 8 -13 12 -6 9 6 -4 14 -2
18 4 3 5 1 10 -6 10 -7 0 -9 3 -6 7 4 3 2 12 -4 19 -7 8 -6 14 2 20 8 5 10 3
4 -7 -5 -8 -4 -11 1 -6 11 10 13 57 2 57 -4 0 -8 5 -8 11 0 5 6 7 13 3 9 -6 9
-5 0 7 -10 12 -10 18 0 29 9 10 9 11 0 6 -7 -4 -13 -2 -13 3 0 6 6 11 13 11 8
0 8 3 1 8 -17 11 -24 41 -12 48 6 4 8 3 4 -4 -3 -6 -2 -13 3 -16 13 -8 8 19
-7 37 -10 12 -10 17 -1 23 8 5 9 3 4 -6 -5 -9 -4 -11 3 -6 8 4 8 15 2 31 -5
13 -10 62 -11 107 -1 46 -6 91 -11 102 -7 14 -7 16 2 11 7 -4 4 5 -6 21 -14
21 -14 26 -3 17 12 -10 15 -8 15 7 0 10 -4 16 -8 14 -4 -3 -9 4 -9 15 -1 12
-2 27 -3 34 -1 6 1 24 5 40 4 15 4 25 -1 22 -5 -3 -7 10 -6 30 2 19 0 35 -4
35 -4 0 -11 7 -14 16 -3 8 -2 13 3 10 5 -3 11 1 15 9 3 8 0 17 -6 21 -7 5 -8
2 -3 -6 5 -8 4 -11 -1 -7 -5 3 -9 21 -8 41 1 21 -3 36 -10 36 -7 0 -8 3 -1 8
18 13 11 37 -10 34 -19 -2 -19 -2 0 10 22 14 26 31 11 45 -5 4 -6 3 -2 -4 3
-6 1 -15 -6 -19 -7 -4 -10 -4 -6 1 4 4 2 15 -5 23 -8 11 -8 14 0 9 6 -4 14 -3
18 3 3 5 2 10 -4 10 -5 0 -8 11 -6 25 1 14 -2 28 -7 31 -5 3 -3 13 4 21 11 14
10 15 -12 10 -14 -4 -19 -4 -12 -1 15 7 16 44 1 44 -8 0 -7 6 2 17 12 14 12
16 0 9 -9 -6 -12 -5 -9 5 3 8 1 22 -4 31 -7 14 -5 16 9 12 11 -3 9 0 -5 8 -17
11 -20 16 -10 26 9 9 9 12 0 12 -7 0 -12 8 -10 18 2 11 -3 16 -12 14 -10 -1
-9 2 4 13 19 15 19 15 1 28 -13 10 -15 16 -6 21 9 6 9 11 0 22 -6 7 -15 11
-20 8 -5 -3 -6 2 -3 10 3 9 11 13 18 10 6 -3 2 2 -8 10 -18 15 -15 20 9 17 6
-1 2 5 -7 12 -10 8 -18 26 -18 41 0 18 -4 25 -12 21 -7 -4 -4 1 6 9 19 15 12
22 -16 17 -5 0 -8 3 -8 9 0 5 5 10 11 10 6 0 7 6 2 12 -4 7 -7 22 -8 33 0 11
-5 19 -10 18 -6 -1 -10 18 -9 42 1 31 -2 42 -11 39 -9 -4 -12 4 -10 25 3 31
-9 42 -18 19 -3 -7 -4 -3 -4 9 1 12 5 19 9 17 4 -3 5 2 2 10 -3 9 -10 13 -15
10 -5 -3 -6 3 -2 12 5 13 3 15 -8 9 -8 -5 -5 2 5 14 16 18 17 21 3 16 -13 -5
-15 -2 -12 15 3 17 1 20 -13 15 -13 -5 -14 -3 -5 6 11 11 7 42 -6 35 -5 -4
-10 24 -14 76 -1 9 -4 15 -7 13 -3 -2 -12 6 -20 18 -12 20 -12 21 4 8 14 -12
16 -12 10 3 -3 9 -10 16 -16 16 -5 0 -6 5 -3 10 3 6 -1 13 -10 16 -13 5 -13 9
-3 22 10 12 10 14 1 8 -9 -5 -13 0 -13 15 0 12 -8 31 -17 41 -20 22 -29 63
-11 52 7 -4 8 -3 4 5 -4 6 -10 9 -14 7 -4 -2 -14 3 -22 12 -13 14 -12 15 3 9
21 -8 22 0 1 20 -8 9 -13 21 -10 28 3 8 -2 16 -11 19 -8 4 -13 12 -10 19 6 15
-18 38 -29 29 -5 -4 -3 0 4 10 9 11 9 17 2 20 -6 2 -12 13 -13 25 0 12 -5 19
-9 17 -4 -3 -8 4 -8 16 0 11 -7 23 -15 26 -11 5 -12 10 -6 18 7 9 4 17 -10 29
-11 10 -17 22 -14 27 3 6 1 10 -4 10 -6 0 -11 6 -11 14 0 8 -6 17 -12 19 -10
4 -10 6 0 6 10 1 10 4 0 15 -7 8 -16 12 -20 10 -4 -3 -5 4 -3 15 2 11 -3 22
-11 25 -8 3 -14 13 -14 21 0 9 -4 13 -10 10 -6 -3 -7 1 -4 9 4 9 1 16 -6 16
-10 0 -10 3 0 15 10 12 8 14 -9 10 -14 -2 -18 1 -14 11 3 8 0 14 -7 14 -9 0
-9 4 -2 13 8 9 8 17 0 27 -8 13 -9 13 -5 -1 3 -9 0 -16 -7 -16 -6 0 -13 9 -14
19 -5 47 -5 48 -26 42 -15 -4 -17 -3 -7 4 11 8 10 14 -8 33 -12 13 -19 29 -17
36 3 7 -1 13 -8 13 -15 0 -30 27 -27 48 1 7 -5 15 -14 18 -8 3 -15 15 -15 25
0 11 -7 22 -16 26 -13 5 -13 8 -2 15 9 7 7 8 -9 5 -13 -3 -26 0 -30 5 -3 7 -1
8 5 4 7 -4 12 -1 12 9 0 8 -7 18 -16 22 -8 3 -13 12 -10 20 3 8 1 11 -4 8 -6
-3 -10 0 -10 8 0 8 -10 22 -22 31 -13 9 -18 15 -12 12 6 -3 11 1 11 9 0 8 -3
12 -7 10 -4 -2 -12 7 -18 20 -7 14 -16 25 -22 25 -5 0 -10 9 -10 19 0 11 -4
23 -10 26 -6 4 -7 -1 -4 -12 6 -15 4 -15 -9 2 -9 11 -17 26 -17 33 0 8 -5 10
-12 6 -7 -5 -9 -2 -5 9 7 19 -17 42 -34 32 -8 -5 -8 -1 1 15 8 15 8 20 1 16
-10 -6 -15 6 -12 26 0 5 -5 7 -12 5 -6 -1 -11 6 -11 15 1 10 -2 16 -6 13 -10
-6 -45 21 -45 37 -1 7 -7 12 -15 10 -10 -2 -11 0 -2 11 10 11 9 17 -5 28 -17
13 -17 13 -3 -6 14 -19 14 -19 -2 -6 -10 7 -18 20 -18 27 0 8 -9 14 -20 14
-11 0 -20 4 -20 10 0 5 8 6 17 3 14 -5 13 -3 -3 14 -10 11 -25 17 -33 15 -9
-3 -12 -1 -7 6 4 6 -2 20 -14 32 -11 11 -20 25 -20 31 0 7 -9 9 -21 6 -16 -4
-18 -3 -8 9 10 13 6 18 -13 15 -4 0 -4 7 -1 17 3 9 3 14 -1 10 -11 -9 -57 38
-59 61 -1 13 -7 17 -21 13 -14 -4 -17 -2 -11 8 6 10 4 12 -9 7 -9 -4 -15 -3
-11 2 3 5 2 17 -1 26 -5 13 -8 14 -15 3 -6 -9 -9 -7 -9 10 0 13 -6 22 -16 22
-10 0 -14 6 -11 14 4 11 1 13 -10 9 -11 -4 -14 -2 -9 5 4 7 2 12 -4 12 -6 0
-8 4 -5 10 3 6 -1 7 -9 4 -11 -4 -16 0 -16 11 0 9 -4 14 -9 11 -5 -3 -11 3
-14 14 -3 11 -13 20 -24 20 -14 0 -15 2 -5 9 10 6 6 10 -14 15 -22 6 -25 9
-13 17 11 7 11 9 -4 9 -11 0 -15 4 -11 12 4 6 3 8 -3 5 -6 -4 -19 1 -29 9 -10
9 -13 13 -7 9 8 -4 11 -1 7 9 -3 8 -12 12 -20 9 -8 -3 -14 1 -14 10 0 9 -5 19
-12 23 -7 5 -9 2 -4 -7 4 -8 0 -5 -8 5 -9 11 -16 24 -16 29 0 4 -4 5 -10 2 -5
-3 -10 -1 -10 5 0 15 -25 40 -40 40 -6 0 -9 4 -5 9 3 6 -3 8 -14 6 -14 -2 -18
1 -14 11 3 9 -1 14 -12 14 -10 0 -13 5 -9 12 5 8 2 9 -10 5 -9 -4 -15 -3 -12
2 7 11 -39 53 -48 44 -4 -4 -4 0 -1 9 5 14 2 16 -15 13 -18 -3 -20 -2 -10 10
10 12 8 13 -9 10 -12 -2 -19 0 -16 6 4 5 1 9 -5 9 -6 0 -8 5 -4 12 4 6 3 8 -4
4 -6 -3 -15 2 -21 11 -8 14 -10 15 -11 3 0 -8 -9 0 -20 18 -11 18 -25 30 -30
27 -6 -3 -10 0 -10 8 0 8 -16 22 -35 31 -19 9 -35 19 -35 22 0 3 5 2 12 -2 7
-4 8 -3 4 4 -5 9 -13 9 -29 0 -19 -9 -20 -9 -11 3 9 11 7 19 -8 34 -19 20 -19
20 -13 0 4 -13 1 -11 -11 7 -10 14 -31 29 -47 32 -25 5 -28 8 -17 21 11 13 10
14 -5 9 -12 -5 -16 -4 -12 3 5 7 0 9 -13 6 -12 -3 -20 0 -20 7 0 17 -26 40
-45 40 -9 0 -13 5 -10 10 3 6 -1 10 -9 10 -9 0 -16 5 -16 10 0 6 -9 10 -20 10
-11 0 -20 7 -20 16 0 8 -4 12 -10 9 -5 -3 -10 -1 -10 5 0 6 -4 8 -10 5 -5 -3
-10 -1 -10 5 0 6 -4 8 -10 5 -5 -3 -10 1 -10 10 0 9 -4 13 -10 10 -5 -3 -10
-1 -10 4 0 6 -7 11 -16 11 -8 0 -13 4 -10 9 3 4 -6 13 -20 20 -31 14 -37 14
-28 -1 5 -7 3 -8 -5 -4 -7 5 -10 10 -7 13 7 7 -17 32 -26 26 -5 -2 -8 1 -8 8
0 8 -5 7 -17 -2 -11 -10 -14 -10 -9 -1 4 6 2 12 -3 12 -6 0 -11 7 -11 15 0 8
-3 14 -7 13 -18 -5 -53 14 -46 25 4 8 1 7 -9 -1 -13 -11 -16 -10 -14 5 1 17
-3 19 -40 22 -9 1 -12 6 -8 14 5 8 2 7 -10 -2 -15 -13 -18 -12 -23 8 -4 17 -8
19 -14 9 -7 -10 -9 -9 -9 5 0 10 -4 15 -10 12 -5 -3 -10 -1 -10 6 0 8 -4 8
-15 -1 -13 -11 -14 -10 -9 5 5 13 4 16 -4 11 -7 -4 -12 -2 -12 3 0 6 -3 10 -7
10 -22 -4 -33 2 -27 13 5 8 2 9 -9 5 -10 -3 -17 -2 -17 3 0 5 -17 17 -37 25
-21 9 -46 23 -57 33 -11 10 -16 11 -11 3 5 -9 3 -12 -6 -9 -8 3 -13 12 -13 21
1 9 -4 13 -12 10 -8 -3 -11 -10 -8 -17 3 -6 -4 0 -15 14 -11 14 -21 21 -21 16
0 -5 -7 -3 -15 4 -8 6 -20 8 -26 4 -8 -4 -9 -3 -5 4 5 8 0 12 -13 12 -11 0
-22 8 -25 18 -4 10 -13 19 -21 19 -8 0 -12 -4 -10 -8 9 -14 -28 -3 -39 12 -6
8 -18 13 -28 11 -9 -2 -19 2 -23 7 -4 7 1 9 12 5 15 -5 15 -4 3 4 -8 6 -17 9
-21 6 -4 -2 -10 0 -13 5 -3 5 -15 7 -26 4 -13 -3 -22 1 -26 12 -5 13 -9 14
-15 3 -6 -10 -9 -8 -9 7 0 17 -2 17 -10 5 -8 -13 -10 -13 -10 2 0 11 -6 15
-20 11 -12 -3 -20 0 -20 6 0 7 -4 9 -10 6 -5 -3 -10 -1 -10 5 0 6 -4 9 -9 6
-14 -9 -42 5 -35 16 4 6 -3 5 -15 -1 -17 -9 -21 -9 -19 1 2 8 -9 14 -30 16
-18 2 -30 8 -27 13 4 5 1 9 -4 9 -6 0 -11 -5 -11 -10 0 -6 -10 -2 -21 9 -16
15 -26 18 -40 11 -25 -14 -33 -12 -19 4 10 13 7 14 -15 10 -22 -4 -26 -2 -22
11 8 20 -2 19 -20 -2 -8 -10 -12 -13 -9 -6 9 18 -10 27 -71 35 -7 1 -13 5 -13
9 0 9 -20 6 -37 -4 -9 -6 -11 -3 -6 9 4 11 3 15 -5 10 -6 -3 -13 -2 -17 4 -4
6 -12 7 -18 3 -17 -11 -38 -13 -32 -3 3 4 -2 13 -9 19 -10 9 -16 9 -21 1 -5
-8 -11 -8 -21 1 -7 6 -20 9 -29 6 -8 -4 -17 -1 -21 5 -5 7 -2 8 6 3 9 -5 11
-4 6 4 -6 9 -11 9 -22 0 -11 -9 -14 -9 -14 1 0 8 -10 11 -30 8 -20 -3 -31 0
-35 11 -5 13 -7 13 -15 1 -8 -12 -10 -12 -15 2 -4 10 -13 14 -22 11 -12 -5
-14 -3 -8 8 8 12 6 12 -8 0 -13 -10 -17 -10 -17 -1 0 10 -3 10 -14 1 -11 -9
-17 -8 -29 4 -12 11 -17 12 -20 2 -4 -9 -6 -9 -6 1 -1 7 -5 10 -11 7 -5 -3
-10 -1 -10 4 0 6 -5 11 -11 11 -5 0 -8 -4 -4 -10 3 -5 -7 -3 -22 5 -34 18 -46
19 -37 3 5 -10 4 -10 -6 -1 -7 6 -19 9 -28 5 -12 -4 -14 -1 -8 14 5 14 4 16
-4 8 -13 -13 -72 -6 -63 9 4 6 1 7 -8 2 -17 -11 -50 -11 -67 -1 -7 4 -19 5
-27 2 -8 -3 -15 -2 -15 2 0 5 -18 7 -41 6 -29 -1 -45 3 -59 18 -19 20 -19 20
-14 -3 4 -15 2 -19 -3 -12 -5 6 -30 13 -56 14 -26 2 -47 5 -47 9 0 3 -9 6 -20
6 -11 0 -20 -5 -20 -10 0 -5 -7 -1 -16 10 -8 10 -12 13 -8 5 5 -11 3 -13 -9
-8 -10 4 -17 1 -17 -6 0 -9 -3 -9 -9 1 -10 16 -71 25 -71 11 0 -6 5 -7 12 -3
7 5 8 3 3 -6 -6 -10 -13 -7 -27 11 -11 13 -17 18 -13 12 9 -18 -33 -17 -51 2
-12 12 -76 14 -409 14 -342 0 -393 -2 -388 -14z m-697 -89 c0 -3 -4 -8 -10
-11 -5 -3 -10 -1 -10 4 0 6 5 11 10 11 6 0 10 -2 10 -4z m-436 -107 c3 -3 -5
-5 -19 -5 -13 0 -22 3 -19 7 4 8 30 6 38 -2z m-1041 -404 c-3 -9 -8 -14 -10
-11 -3 3 -2 9 2 15 9 16 15 13 8 -4z m8167 -5225 c0 -5 -5 -10 -11 -10 -5 0
-7 5 -4 10 3 6 8 10 11 10 2 0 4 -4 4 -10z m-1429 -3513 c-10 -9 -11 -8 -5 6
3 10 9 15 12 12 3 -3 0 -11 -7 -18z m-8241 -112 c0 -8 -2 -15 -4 -15 -2 0 -6
7 -10 15 -3 8 -1 15 4 15 6 0 10 -7 10 -15z m425 -405 c10 -11 16 -20 13 -20
-3 0 -13 9 -23 20 -10 11 -16 20 -13 20 3 0 13 -9 23 -20z m635 -480 c0 -5 -2
-10 -4 -10 -3 0 -8 5 -11 10 -3 6 -1 10 4 10 6 0 11 -4 11 -10z"/>
<path d="M4870 11199 c0 -5 5 -7 10 -4 6 3 10 8 10 11 0 2 -4 4 -10 4 -5 0
-10 -5 -10 -11z"/>
<path d="M2126 10045 c-11 -8 -15 -15 -9 -15 6 0 16 7 23 15 16 19 11 19 -14
0z"/>
<path d="M1126 9023 c-6 -14 -5 -15 5 -6 7 7 10 15 7 18 -3 3 -9 -2 -12 -12z"/>
<path d="M1065 8944 c-9 -15 -12 -23 -6 -20 11 7 35 46 28 46 -3 0 -12 -12
-22 -26z"/>
<path d="M10420 8536 c0 -2 8 -10 18 -17 15 -13 16 -12 3 4 -13 16 -21 21 -21
13z"/>
<path d="M10460 8476 c0 -2 8 -10 18 -17 15 -13 16 -12 3 4 -13 16 -21 21 -21
13z"/>
<path d="M10835 3570 c-3 -5 -1 -10 4 -10 6 0 11 5 11 10 0 6 -2 10 -4 10 -3
0 -8 -4 -11 -10z"/>
<path d="M10045 2211 c-3 -5 -2 -12 3 -15 5 -3 9 1 9 9 0 17 -3 19 -12 6z"/>
<path d="M2110 1241 c0 -5 7 -12 16 -15 14 -5 15 -4 4 9 -14 17 -20 19 -20 6z"/>
<path d="M2466 975 c4 -8 11 -15 16 -15 6 0 5 6 -2 15 -7 8 -14 15 -16 15 -2
0 -1 -7 2 -15z"/>
<path d="M7350 289 c0 -5 5 -7 10 -4 6 3 10 8 10 11 0 2 -4 4 -10 4 -5 0 -10
-5 -10 -11z"/>
</g>
</svg>
